# xmcd
#
# Track frame offsets:
# 150
# 18365
# 31372
# 47330
# 62651
# 82813
# 106468
# 121587
# 138284
# 154428
# 165135
# 177984
# 193699
# 211485
# 228369
# 245375
# 256537
# 269041
# 282865
# 301107
#
# Disc length: 4429 seconds
#
#
# Revision: 3
# Processed by: cddbd v1.5.1PL0 Copyright (c) Steve Scherf et al.
# Submitted via: FreeRIP 2.70 
#
DISCID=fe114b14
DTITLE=Jimi Hendrix - The Ultimate Experience
DYEAR=1992
DGENRE=Blues
TTITLE0=All Along The Watchtower
TTITLE1=Purple Haze
TTITLE2=Hey Joe
TTITLE3=The Wind Cries Mary
TTITLE4=Angel
TTITLE5=Voodoo Child (Slight Return)
TTITLE6=Foxy Lady
TTITLE7=Burning Of The Midnight Lamp
TTITLE8=Highway Chile
TTITLE9=Crosstown Traffic
TTITLE10=Castles Made Of Sand
TTITLE11=Long Hot Summer Night
TTITLE12=Red House
TTITLE13=Manic Depression
TTITLE14=Gypsy Eyes
TTITLE15=Little Wing
TTITLE16=Fire
TTITLE17=Wait Until Tomorrow
TTITLE18=Star Spangled Banner  (Live)
TTITLE19=Wild Thing (Live)
EXTD=
EXTT0=
EXTT1=
EXTT2=
EXTT3=
EXTT4=
EXTT5=
EXTT6=
EXTT7=
EXTT8=
EXTT9=
EXTT10=
EXTT11=
EXTT12=
EXTT13=
EXTT14=
EXTT15=
EXTT16=
EXTT17=
EXTT18=
EXTT19=
PLAYORDER=
